<svg viewBox="0 0 489 288" xmlns="http://www.w3.org/2000/svg" fill-rule="evenodd" clip-rule="evenodd" stroke-linecap="round" stroke-linejoin="round" stroke-miterlimit="1.5">
    <path d="M487.906 4.691A3.693 3.693 0 0 0 484.215 1H4.691A3.693 3.693 0 0 0 1 4.691v277.743a3.693 3.693 0 0 0 3.691 3.691h479.524a3.693 3.693 0 0 0 3.691-3.691V4.691z" fill="#1a2d34" stroke="#3bd4b5" stroke-width="2"/>
    <circle cx="18.474" cy="18.37" r="5.724" fill="#fe5e56"/>
    <circle cx="37.567" cy="18.37" r="5.724" fill="#febc2e"/>
    <circle cx="56.659" cy="18.37" r="5.724" fill="#27c93f"/>
    <text x="227.581" y="24.326" font-weight="300" font-size="16" fill="#fff">
        bash
    </text>
    <g font-size="16">
        <text x="219.439" y="480.516" font-family="'Overpass Mono'" font-weight="700" fill="#3bd4b5" transform="translate(-196.943 -415.113)">
            ~/hayproject
        </text>
        <text x="347.567" y="480.516" font-family="'Overpass Mono'" font-weight="300" fill="#fff" transform="translate(-196.943 -415.113)">
            $ npm test
        </text>
        <text x="239.151" y="528.516" font-family="'Overpass Mono'" font-weight="300" fill="#fff" transform="translate(-196.943 -415.113)">
            src/tests/index.test.ts
        </text>
        <text x="258.863" y="552.516" font-family="'Overpass Mono'" font-weight="300" fill="#ffe566" transform="translate(-196.943 -415.113)">
            isHay() returns true
        </text>
        <text x="465.839" y="552.516" font-family="'AppleSymbols','Apple Symbols'" fill="#3bd4b5" transform="translate(-196.943 -415.113)">
            ⚑
        </text>
        <text x="239.151" y="600.516" font-family="'Overpass Mono'" font-weight="700" fill="#3bd4b5" transform="translate(-196.943 -415.113)">
            1
        </text>
        <text x="258.863" y="600.516" font-family="'Overpass Mono'" font-weight="300" fill="#fff" transform="translate(-196.943 -415.113)">
            passing
        </text>
        <text x="219.439" y="648.516" font-family="'Overpass Mono'" font-weight="700" fill="#3bd4b5" transform="translate(-196.943 -415.113)">
            ~/hayproject
        </text>
        <text x="347.567" y="648.516" font-family="'Overpass Mono'" font-weight="300" fill="#fff" transform="translate(-196.943 -415.113)">
            $
        </text>
    </g>
    <path class="blinking-cursor" d="M168.386 219.409h9.77v18.402h-9.77z" />
</svg>
