<svg width="179" height="37" viewBox="0 0 179 37" xmlns="http://www.w3.org/2000/svg" fill-rule="evenodd" clip-rule="evenodd" stroke-linejoin="round" stroke-miterlimit="1.414">
    <path d="M56.688 14.353c0-2.878-.635-7.102-6.167-7.102-2.766 0-5.121 1.159-6.504 3.289V0h-7.101v27.286h7.101V16.259c.673-1.719 2.355-2.803 3.29-2.803 1.308 0 2.28.822 2.28 2.766v11.064h7.101V14.353zm9.375 13.306c2.579 0 4.933-1.196 6.69-3.438l.15.71c.373 1.794 1.644 2.728 4.186 2.728.897 0 2.056-.112 3.364-.373v-5.981c-1.308-.075-1.72-.523-1.72-1.869v-3.812c0-5.532-3.55-8.373-9.792-8.373-3.364 0-6.242.823-8.859 2.505l2.056 4.41c2.093-1.383 3.887-2.13 6.092-2.13 2.393 0 3.402.897 3.402 2.728v.598c-1.009-.486-2.43-.747-3.962-.747-4.971 0-8.485 2.766-8.485 6.728 0 3.625 2.953 6.316 6.878 6.316zm2.13-5.083c-1.346 0-2.317-.785-2.317-1.869 0-1.271 1.308-2.242 3.027-2.242.785 0 1.906.224 2.729.523v1.458c0 .485-.374 1.009-.935 1.382-.672.449-1.644.748-2.504.748zm13.239 12.746c1.196.486 2.43.71 3.663.71 4.037 0 7.476-2.542 8.635-6.392l6.653-22.015h-6.616l-3.028 13.643-3.737-13.643h-7.289l7.139 19.661c-.149 1.756-.972 2.616-2.504 2.616-.785 0-1.794-.224-2.916-.635v6.055zm27.837-7.663c4.523 0 7.476-2.242 7.476-5.718 0-3.364-2.691-4.224-7.588-5.383-3.588-.859-5.083-1.308-5.083-3.551 0-2.803 2.355-3.999 5.233-3.999 2.317 0 4.56.748 5.831 2.243l1.046-1.01c-1.271-1.607-3.738-2.728-6.765-2.728-3.887 0-7.139 1.869-7.139 5.756 0 3.065 2.018 3.775 6.429 4.822 4.074.972 6.204 1.607 6.204 4.037 0 2.541-2.28 4.036-5.644 4.036-2.653 0-4.859-.897-6.952-2.766l-.934 1.271c2.018 1.981 4.896 2.99 7.886 2.99zm19.708 0c5.307 0 8.896-4.634 8.896-10.054 0-5.121-3.888-10.092-9.27-10.092-2.953 0-5.794 1.757-7.401 4.224V7.849h-1.682v27.398h1.869V23.099c1.57 2.542 4.261 4.56 7.588 4.56zm-.411-1.682c-3.103 0-5.944-2.28-7.177-5.158v-6.391c.299-2.766 4.112-5.233 6.84-5.233 4.336 0 7.737 3.962 7.737 8.41 0 4.186-2.915 8.372-7.4 8.372zm20.911 1.682c3.625 0 6.915-2.018 8.073-4.784l-1.644-.448c-.972 2.205-3.626 3.737-6.355 3.737-4.036 0-7.4-3.364-7.737-7.849h17.082c0-.112.037-.561.037-.822-.037-5.42-4.037-9.98-9.531-9.98-5.42 0-9.531 4.485-9.531 9.98 0 5.532 4.149 10.166 9.606 10.166zm-7.7-10.839c.262-4.523 3.551-7.775 7.625-7.775 4.111 0 7.363 3.215 7.7 7.775h-15.325zm19.143.673c0 5.532 4.187 10.166 9.644 10.166 3.588 0 6.877-2.018 7.849-4.747l-1.831-.523c-.598 1.906-3.439 3.588-6.13 3.588-4.149 0-7.625-3.812-7.625-8.484 0-4.71 3.326-8.298 7.587-8.298 2.542 0 4.822 1.308 5.981 3.439l1.831-.598c-1.383-2.804-4.186-4.523-7.699-4.523-5.57 0-9.607 4.448-9.607 9.98z" fill="#fff" fill-rule="nonzero"/>
    <path d="M28.204.117C13.176.117.993 12.3.993 27.328h2.285c0-13.766 11.16-24.926 24.926-24.926V.117z" fill="#3bd4b5"/>
    <path d="M28.204 5.591A21.74 21.74 0 0 0 7.666 20.208l2.352.815A19.248 19.248 0 0 1 28.204 8.08V5.591z" fill="#3bd4b5"/>
    <path d="M21.442 13.018a15.828 15.828 0 0 0-9.065 14.31h2.29a13.535 13.535 0 0 1 7.754-12.239l-.979-2.071z" fill="#ffe566"/>
    <path d="M28.204 16.876c-5.772 0-10.452 4.68-10.452 10.452h2.613a7.84 7.84 0 0 1 7.839-7.839v-2.613z" fill="#fe5e56"/>
</svg>
