<svg width="30" height="30" viewBox="0 0 30 30" xmlns="http://www.w3.org/2000/svg" fill-rule="evenodd" clip-rule="evenodd" stroke-linejoin="round" stroke-miterlimit="1.414">
    <path d="M14.725 1.472c7.75 0 14 6.438 14 14.375 0 6.313-4 11.75-9.563 13.625h-.25c-.5 0-.75-.438-.75-.75 0-.5.063-1.938.063-3.875 0-1.313-.5-2.25-1-2.688 3.125-.375 6.438-1.563 6.438-7.063 0-1.563-.563-2.875-1.438-3.875.125-.375.625-1.813-.125-3.813h-.313c-.5 0-1.688.188-3.563 1.5a13.137 13.137 0 0 0-3.5-.5c-1.187 0-2.375.188-3.5.5-1.875-1.313-3.063-1.5-3.563-1.5h-.313c-.75 2-.25 3.438-.125 3.813-.875 1-1.438 2.313-1.438 3.875 0 5.5 3.25 6.688 6.375 7.063-.375.375-.75 1-.875 1.938-.375.188-1 .375-1.625.375-.813 0-1.75-.313-2.438-1.563 0 0-.813-1.375-2.188-1.5-.125 0-1.313 0-.063.875 0 0 .938.5 1.563 2.125 0 0 .625 2.063 3.313 2.063.438 0 .875 0 1.375-.125v2.438c0 .313-.188.688-.688.688h-.25C4.721 27.598.721 22.223.721 15.848c0-7.938 6.25-14.375 14-14.375l.004-.001z" fill="#fff" fill-rule="nonzero" stroke="#fff"/>
</svg>
