<svg viewBox="0 0 489 287" xmlns="http://www.w3.org/2000/svg" fill-rule="evenodd" clip-rule="evenodd" stroke-linecap="round" stroke-linejoin="round" stroke-miterlimit="1.5">
    <path d="M487.906 4.691A3.693 3.693 0 0 0 484.215 1H4.691A3.693 3.693 0 0 0 1 4.691v277.743a3.693 3.693 0 0 0 3.691 3.691h479.524a3.693 3.693 0 0 0 3.691-3.691V4.691z" fill="#1a2d34" stroke="#3bd4b5" stroke-width="2"/>
    <circle cx="19.403" cy="18.37" r="5.724" fill="#fe5e56"/>
    <circle cx="38.495" cy="18.37" r="5.724" fill="#febc2e"/>
    <circle cx="57.588" cy="18.37" r="5.724" fill="#27c93f"/>
    <text x="231.741" y="24.326" font-family="'Overpass'" font-weight="300" font-size="16" fill="#fff">
        IDE
    </text>
    <g font-family="'Overpass Mono'" font-size="16">
        <text x="831.004" y="469.585" fill="#e488d2" transform="translate(-800.798 -405.406)">
            import
        </text>
        <text x="899.996" y="469.585" fill="#fff" transform="translate(-800.798 -405.406)">
            {
        </text>
        <text x="919.708" y="469.585" fill="#8ee4fb" transform="translate(-800.798 -405.406)">
            Spec
        </text>
        <text x="968.988" y="469.585" fill="#fff" transform="translate(-800.798 -405.406)">
            }
        </text>
        <text x="988.7" y="469.585" fill="#e488d2" transform="translate(-800.798 -405.406)">
            from
        </text>
        <text x="1037.98" y="469.585" fill="#f48e6c" transform="translate(-800.798 -405.406)">
            &apos;
        </text>
        <text x="1047.84" y="469.585" fill="#f48e6c" transform="translate(-800.798 -405.406)">
            @hayspec/spe
        </text>
        <text x="1166.11" y="469.585" fill="#f48e6c" transform="translate(-800.798 -405.406)">
            c&apos;
        </text>
        <text x="1185.82" y="469.585" fill="#fff" transform="translate(-800.798 -405.406)">
            ;
        </text>
        <text x="831.004" y="517.585" fill="#4c9ef5" transform="translate(-800.798 -405.406)">
            const
        </text>
        <text x="890.14" y="517.585" fill="#8ee4fb" transform="translate(-800.798 -405.406)">
            spec
        </text>
        <text x="939.42" y="517.585" fill="#fff" transform="translate(-800.798 -405.406)">
            =
        </text>
        <text x="959.132" y="517.585" fill="#4c9ef5" transform="translate(-800.798 -405.406)">
            new
        </text>
        <text x="998.556" y="517.585" fill="#3bd4b5" transform="translate(-800.798 -405.406)">
            Spec
        </text>
        <text x="1037.98" y="517.585" fill="#fff" transform="translate(-800.798 -405.406)">
            ();
        </text>
        <text x="831.004" y="565.585" fill="#8ee4fb" transform="translate(-800.798 -405.406)">
            spec
        </text>
        <text x="870.428" y="565.585" fill="#fff" transform="translate(-800.798 -405.406)">
            .
        </text>
        <text x="880.284" y="565.585" fill="#ffe566" transform="translate(-800.798 -405.406)">
            test
        </text>
        <text x="919.708" y="565.585" fill="#fff" transform="translate(-800.798 -405.406)">
            (
        </text>
        <text x="929.564" y="565.585" fill="#f48e6c" transform="translate(-800.798 -405.406)">
            &apos;is true&apos;
        </text>
        <text x="1018.27" y="565.585" fill="#fff" transform="translate(-800.798 -405.406)">
            ,
        </text>
        <text x="1037.98" y="565.585" fill="#4c9ef5" transform="translate(-800.798 -405.406)">
            async
        </text>
        <text x="1097.12" y="565.585" fill="#fff" transform="translate(-800.798 -405.406)">
            (
        </text>
        <text x="1106.97" y="565.585" fill="#8ee4fb" transform="translate(-800.798 -405.406)">
            ctx
        </text>
        <text x="1136.54" y="565.585" fill="#fff" transform="translate(-800.798 -405.406)">
            )
        </text>
        <text x="1156.25" y="565.585" fill="#4c9ef5" transform="translate(-800.798 -405.406)">
            =&gt;
        </text>
        <text x="1185.82" y="565.585" fill="#fff" transform="translate(-800.798 -405.406)">
            {
        </text>
        <text x="850.716" y="589.585" fill="#8ee4fb" transform="translate(-800.798 -405.406)">
            ctx
        </text>
        <text x="880.284" y="589.585" fill="#fff" transform="translate(-800.798 -405.406)">
            .
        </text>
        <text x="890.14" y="589.585" fill="#ffe566" transform="translate(-800.798 -405.406)">
            true
        </text>
        <text x="929.564" y="589.585" fill="#fff" transform="translate(-800.798 -405.406)">
            (
        </text>
        <text x="939.42" y="589.585" fill="#4c9ef5" transform="translate(-800.798 -405.406)">
            true
        </text>
        <text x="978.844" y="589.585" fill="#fff" transform="translate(-800.798 -405.406)">
            );
        </text>
        <text x="831.004" y="613.585" fill="#fff" transform="translate(-800.798 -405.406)">
            });
        </text>
        <text x="831.004" y="661.585" fill="#e488d2" transform="translate(-800.798 -405.406)">
            export default
        </text>
        <text x="978.844" y="661.585" fill="#8ee4fb" transform="translate(-800.798 -405.406)">
            spec
        </text>
        <text x="1018.27" y="661.585" fill="#fff" transform="translate(-800.798 -405.406)">
            ;
        </text>
    </g>
</svg>
